<svg viewBox="0 0 683 860" aria-hidden="true" fill='lightblue' xmlns="http://www.w3.org/2000/svg"><path d="M360.729 352.967C381.64 342.576 388.784 341.407 415.41 344.005C470.091 349.33 528.278 372.449 569.321 405.18C618.936 444.794 659.46 506.099 673.747 563.377C680.76 591.302 683.878 632.864 681.15 661.568C674.656 729.107 642.705 786.386 593.349 819.506C555.683 844.703 516.589 856.652 464.635 858.99C427.359 860.679 398.655 856.782 342.935 842.755C288.255 828.987 269.032 826.39 230.846 827.429C204.48 828.208 194.349 829.767 175.646 836.131C169.672 838.209 164.476 839.638 164.217 839.378C163.178 838.467 170.841 819.895 177.854 805.998C201.363 759.63 242.406 721.964 289.294 703.78C313.062 694.559 336.701 690.662 369.042 690.662C391.901 690.662 407.357 692.221 438.269 697.806C451.777 700.273 470.74 702.871 480.221 703.65C549.189 709.235 599.064 679.752 617.767 622.474C619.586 616.759 621.144 611.563 621.144 611.044C621.144 610.395 616.858 613.901 611.533 618.837C578.543 650.268 536.85 662.218 478.923 656.893C465.155 655.594 460.089 654.814 427.749 649.1C403.071 644.684 378.653 643.385 356.573 645.073C346.053 645.853 335.142 646.892 332.415 647.281L327.479 648.19L328.259 643.125C332.934 616.499 338.13 599.744 348.39 579.612C363.587 549.35 380.472 529.088 402.292 514.671C433.593 494.149 460.35 484.148 501.003 477.524C510.222 476.096 518.013 474.668 518.277 474.537C518.927 473.758 498.795 468.562 487.365 466.484C469.441 463.367 435.931 464.536 417.228 468.952C364.886 481.421 319.037 512.853 286.306 558.961C264.616 589.613 246.432 631.825 236.691 674.037L233.834 686.766L221.235 695.468C214.351 700.274 201.363 711.573 192.401 720.535L175.906 736.771L175.127 723.782C173.308 694.818 164.476 669.102 147.332 642.605C137.071 626.76 126.68 614.681 104.73 593.25C81.6112 570.91 72.5193 560.909 63.0378 547.401C37.9705 511.813 24.5925 461.419 28.7488 417.908C31.4763 389.335 41.3473 347.773 45.5037 347.771C48.6208 347.771 70.8307 358.811 79.6628 364.786C92.0017 373.099 105.639 384.399 122.394 400.374C139.019 416.09 153.047 426.48 165.775 432.195C202.402 448.82 243.185 444.664 276.955 420.766C281.501 417.519 294.359 406.089 305.269 395.568C329.557 372.19 343.585 361.409 360.729 352.967ZM77.4548 630.267C76.4161 626.111 101.613 652.866 108.497 663.127C122.005 683.259 129.798 705.599 132.785 732.354C135.902 760.279 130.707 789.113 115.77 827.039L109.146 843.794L103.691 844.573C97.325 845.612 19.0076 844.833 17.9685 843.924C16.8 842.754 20.4364 829.377 23.5535 823.272C30.5671 809.765 45.3739 798.984 61.6091 795.607L69.1423 794.049L72.3894 783.788C74.2078 778.203 77.1951 766.124 79.1433 757.162C82.5203 741.316 82.6501 738.979 82.78 702.352C82.78 672.219 82.2605 660.659 80.4421 648.45C79.1433 639.878 77.8445 631.695 77.4548 630.267ZM62.1287 0.984375C62.5183 0.984375 64.5965 1.89361 66.9343 3.0625C73.8181 6.6992 89.9236 17.8691 99.6648 25.6621C117.069 39.8193 138.63 65.2764 152.657 88.3955L158.112 97.2275L163.307 96.4482C190.713 92.6817 221.105 92.1621 246.432 95.1494C255.783 96.3183 264.225 97.4872 265.395 97.7471C266.824 98.2666 269.032 96.1884 272.409 90.9932C286.826 69.043 313.582 39.4297 332.155 25.0127C341.376 17.7396 361.247 4.88215 363.067 4.88086C363.457 4.88086 366.054 10.8555 368.912 18.1289C383.459 55.5352 388.784 88.0059 386.186 122.685C384.628 142.816 383.589 149.181 378.134 172.17C376.055 181.002 374.367 189.055 374.367 190.094C374.367 191.263 376.965 195.679 380.082 200.095C397.746 225.162 409.176 253.477 416.579 290.104L417.358 294.13L407.487 295.688C380.342 300.105 346.442 311.404 326.96 322.704C310.595 332.056 302.542 338.81 280.202 361.409C249.809 392.061 237.73 398.945 213.312 399.075C190.063 399.075 174.867 391.412 149.02 366.604C131.616 349.85 112.004 334.004 96.5476 324.393C77.4548 312.314 46.5426 301.273 16.0203 295.559C7.70788 294.13 0.823972 292.701 0.564209 292.441C-0.214201 291.919 4.07129 271.4 7.05835 261.399C13.1628 239.969 27.9695 208.537 38.1003 194.899L43.1658 188.146L39.9187 172.819C34.2039 145.154 32.3855 127.101 33.1648 103.592C33.9441 78.2647 36.282 64.2373 43.2957 43.1963C47.9712 29.2996 60.5689 0.9877 62.1287 0.984375ZM235.782 342.576C230.456 341.018 204.61 339.849 198.376 340.758C196.298 341.147 192.271 342.057 189.674 342.706C185.388 343.745 184.738 344.524 184.738 347.771C184.738 356.214 189.674 365.436 199.025 374.268C212.143 386.606 211.754 386.476 220.196 379.593C230.587 371.15 236.431 363.747 238.639 356.344C241.757 346.083 241.367 344.265 235.782 342.576ZM117.069 219.967C104.99 217.629 86.0271 215.94 86.0271 217.109C86.0273 219.447 96.9373 236.332 102.133 242.177C109.925 250.749 118.368 256.074 132.785 261.399C149.41 267.634 158.632 274.518 167.074 287.246L170.451 292.312V285.168C170.451 276.206 166.425 260.49 161.879 251.528C153.956 235.813 136.811 223.604 117.069 219.967ZM339.299 218.928C339.299 217.369 321.375 217.889 310.594 219.967C279.812 225.552 261.888 242.566 256.693 271.141C255.784 276.466 255.005 283.22 255.005 286.077V291.272L257.862 287.376C262.927 280.492 272.019 271.141 276.435 268.543C278.773 266.984 285.787 264.127 292.151 261.919C305.789 257.373 315.011 251.268 323.583 241.397C330.077 233.864 339.299 220.616 339.299 218.928Z" ></path></svg>
